<?xml version="1.0" encoding="UTF-8" standalone="no"?>
<!-- Created with Inkscape (http://www.inkscape.org/) -->

<svg
   xmlns:dc="http://purl.org/dc/elements/1.1/"
   xmlns:cc="http://creativecommons.org/ns#"
   xmlns:rdf="http://www.w3.org/1999/02/22-rdf-syntax-ns#"
   xmlns:svg="http://www.w3.org/2000/svg"
   xmlns="http://www.w3.org/2000/svg"
   xmlns:sodipodi="http://sodipodi.sourceforge.net/DTD/sodipodi-0.dtd"
   xmlns:inkscape="http://www.inkscape.org/namespaces/inkscape"
   width="524.40942"
   height="744.09448"
   id="svg3069"
   version="1.1"
   inkscape:version="0.48.2 r9819"
   sodipodi:docname="Novo documento 2">
  <defs
     id="defs3071">
    <marker
       inkscape:stockid="Arrow1Mstart7"
       orient="auto"
       refY="0"
       refX="0"
       id="Arrow1Mstart7"
       style="overflow:visible">
      <path
         inkscape:connector-curvature="0"
         id="path4802"
         d="M 0,0 5,-5 -12.5,0 5,5 0,0 z"
         style="fill:#ff0000;fill-rule:evenodd;stroke:#ff0000;stroke-width:1pt;marker-start:none"
         transform="matrix(0.4,0,0,0.4,4,0)" />
    </marker>
    <marker
       inkscape:stockid="Arrow1MstartH"
       orient="auto"
       refY="0"
       refX="0"
       id="Arrow1MstartH"
       style="overflow:visible">
      <path
         inkscape:connector-curvature="0"
         id="path4909"
         d="M 0,0 5,-5 -12.5,0 5,5 0,0 z"
         style="fill:#0000ff;fill-rule:evenodd;stroke:#0000ff;stroke-width:1pt;marker-start:none"
         transform="matrix(0.4,0,0,0.4,4,0)" />
    </marker>
  </defs>
  <sodipodi:namedview
     id="base"
     pagecolor="#ffffff"
     bordercolor="#666666"
     borderopacity="1.0"
     inkscape:pageopacity="0.0"
     inkscape:pageshadow="2"
     inkscape:zoom="0.7"
     inkscape:cx="366.6411"
     inkscape:cy="344.61966"
     inkscape:document-units="px"
     inkscape:current-layer="layer1"
     showgrid="true"
     inkscape:window-width="1280"
     inkscape:window-height="1000"
     inkscape:window-x="0"
     inkscape:window-y="24"
     inkscape:window-maximized="1">
    <inkscape:grid
       type="xygrid"
       id="grid3077"
       empspacing="5"
       visible="true"
       enabled="true"
       snapvisiblegridlinesonly="true" />
  </sodipodi:namedview>
  <metadata
     id="metadata3074">
    <rdf:RDF>
      <cc:Work
         rdf:about="">
        <dc:format>image/svg+xml</dc:format>
        <dc:type
           rdf:resource="http://purl.org/dc/dcmitype/StillImage" />
        <dc:title></dc:title>
      </cc:Work>
    </rdf:RDF>
  </metadata>
  <g
     inkscape:label="Camada 1"
     inkscape:groupmode="layer"
     id="layer1"
     transform="translate(0,-308.26769)">
    <path
       transform="translate(40,288.26769)"
       sodipodi:type="arc"
       style="fill:none;stroke:#000000;stroke-width:1;stroke-miterlimit:4;stroke-dasharray:none;stroke-dashoffset:0"
       id="path3007"
       sodipodi:cx="100"
       sodipodi:cy="479.09448"
       sodipodi:rx="30"
       sodipodi:ry="55"
       d="m 130,479.09448 a 30,55 0 1 1 -60,0 30,55 0 1 1 60,0 z" />
    <path
       style="fill:none;stroke:#000000;stroke-width:1px;stroke-linecap:butt;stroke-linejoin:miter;stroke-opacity:1"
       d="m 118,729.36217 c 50,-85 70,-95 70,-95"
       id="path3009"
       inkscape:connector-curvature="0" />
    <path
       style="fill:none;stroke:#000000;stroke-width:1px;stroke-linecap:butt;stroke-linejoin:miter;stroke-opacity:1"
       d="m 160,809.36217 c 50,-85 70,-95 70,-95"
       id="path3009-8"
       inkscape:connector-curvature="0" />
    <path
       transform="translate(50.095131,272.68763)"
       sodipodi:type="arc"
       style="fill:none;stroke:#000000;stroke-width:1;stroke-miterlimit:4;stroke-dasharray:none;stroke-dashoffset:0"
       id="path3007-1"
       sodipodi:cx="100"
       sodipodi:cy="479.09448"
       sodipodi:rx="30"
       sodipodi:ry="56.419941"
       d="m 81.40937,434.81338 a 30,56.419941 0 0 1 42.37119,78.67644"
       sodipodi:start="4.0440443"
       sodipodi:end="6.9387802"
       sodipodi:open="true" />
    <path
       transform="translate(45,279.68763)"
       sodipodi:type="arc"
       style="fill:none;stroke:#ff0000;stroke-width:1.39999998;stroke-miterlimit:4;stroke-dasharray:8.4, 1.4;stroke-dashoffset:0"
       id="path3007-1-2"
       sodipodi:cx="100"
       sodipodi:cy="479.09448"
       sodipodi:rx="30"
       sodipodi:ry="56.419941"
       d="m 84.101981,431.24818 a 30,56.419941 0 0 1 36.552559,88.76491"
       sodipodi:start="4.1538663"
       sodipodi:end="7.094584"
       sodipodi:open="true" />
    <path
       sodipodi:type="arc"
       style="fill:#333333;stroke:#333333;stroke-width:0.41383743;stroke-miterlimit:4;stroke-dasharray:none;stroke-dashoffset:0"
       id="path3854"
       sodipodi:cx="107.5"
       sodipodi:cy="481.59448"
       sodipodi:rx="12.5"
       sodipodi:ry="17.5"
       d="M 117.77512,491.56028 A 12.5,17.5 0 1 1 103.36155,465.08141"
       transform="matrix(1.9758405,0,0,2.5660853,-63.70485,-481.02345)"
       sodipodi:start="0.6058657"
       sodipodi:end="4.374945"
       sodipodi:open="true" />
    <path
       style="fill:none;stroke:#000000;stroke-width:1px;stroke-linecap:butt;stroke-linejoin:miter;stroke-opacity:1"
       d="m 188,634.36217 c 10.32717,-5.7173 23.05776,67.78531 42,80"
       id="path3885"
       inkscape:connector-curvature="0"
       sodipodi:nodetypes="cc" />
    <path
       style="fill:#0000ff;stroke:#0000ff;stroke-width:1.20000005;stroke-linecap:butt;stroke-linejoin:miter;stroke-miterlimit:4;stroke-opacity:1;stroke-dasharray:9.6, 1.2;stroke-dashoffset:0"
       d="m 158,723.36217 c 0,0 38,-46 50,-49"
       id="path3887"
       inkscape:connector-curvature="0" />
    <path
       style="fill:#333333;fill-opacity:1;stroke:#333333;stroke-width:0.30000001;stroke-miterlimit:4;stroke-dasharray:none;stroke-dashoffset:0"
       d="m 147.14919,799.0041 c -7.84331,-1.12788 -14.95673,-9.07345 -18.98774,-21.20899 -4.28265,-12.89311 -4.69376,-28.86185 -1.09094,-42.375 1.4904,-5.59009 3.99466,-11.27176 6.73474,-15.27984 1.66797,-2.43984 4.42107,-5.37671 6.1048,-6.51228 0.93178,-0.62843 1.07613,-0.65303 2.48914,-0.42431 11.87813,1.92269 22.04963,17.03879 25.62678,38.08455 1.45554,8.56347 1.70138,23.19076 0.47691,28.37559 -0.3423,1.44942 -2.70838,6.4235 -4.04629,8.50629 -3.65645,5.69217 -8.10961,9.40536 -12.5574,10.47077 -1.2934,0.30982 -3.79245,0.50091 -4.75,0.36322 l 0,0 z"
       id="path3889"
       inkscape:connector-curvature="0" />
    <path
       style="fill:#333333;fill-opacity:1;stroke:none"
       d="m 144.89919,798.17536 c -0.825,-0.27528 -2.175,-0.87788 -3,-1.33912 -1.76902,-0.98901 -5.3198,-4.21661 -6.79137,-6.17323 -1.01799,-1.35353 -3.58363,-5.36629 -3.58363,-5.60492 0,-0.0664 -0.49837,-1.13717 -1.10748,-2.37939 -0.60911,-1.24223 -1.06311,-2.25859 -1.00888,-2.25859 0.0542,0 -0.11099,-0.48894 -0.36715,-1.08654 -0.79973,-1.86568 -2.61463,-8.7434 -3.11077,-11.78846 -0.62499,-3.83594 -0.77975,-6.47116 -0.77079,-13.125 0.0106,-7.90732 0.22715,-10.18835 1.51868,-16 1.39539,-6.27907 3.15291,-10.83901 6.41625,-16.64724 1.22974,-2.18872 4.68039,-6.19332 6.46615,-7.5042 1.15615,-0.84869 1.34079,-0.90491 2.54283,-0.77421 3.61306,0.39284 7.55866,2.52214 11.14511,6.01461 2.29057,2.23055 2.95862,3.02447 4.68579,5.56866 4.87239,7.17723 8.34775,16.71544 9.97877,27.38694 0.45734,2.99234 0.47095,3.13358 0.87461,9.08044 0.33299,4.90552 0.1932,13.67911 -0.26089,16.375 -0.93901,5.57483 -6.15581,13.93499 -10.96289,17.56852 -2.85825,2.16047 -5.01381,2.93818 -8.53934,3.08094 -2.15796,0.0874 -2.89188,0.0172 -4.125,-0.39421 l 0,0 z"
       id="path3895"
       inkscape:connector-curvature="0" />
    <path
       style="fill:#808080;fill-opacity:1;stroke:#808080;stroke-width:0.30000001;stroke-miterlimit:4;stroke-dasharray:none;stroke-dashoffset:0"
       d="m 137.39919,821.52298 c -2.13511,-0.50872 -2.94122,-0.76517 -4.2843,-1.363 -4.2904,-1.90973 -9.06494,-6.48951 -12.30821,-11.80614 -7.18303,-11.77501 -10.77926,-28.13869 -10.00146,-45.50891 0.46828,-10.45788 2.25329,-19.13985 5.75727,-28.00233 4.66379,-11.79592 12.87874,-20.40468 20.5722,-21.55838 l 1.20127,-0.18015 -1.98023,1.99895 c -6.13732,6.19534 -10.31216,16.03595 -12.22553,28.81709 -0.53805,3.59414 -0.74979,13.75856 -0.37494,17.99817 1.72427,19.50136 10.16713,34.68424 21.01168,37.7855 2.03749,0.58267 5.48934,0.61422 7.59189,0.0694 5.48935,-1.42244 10.82463,-6.33107 14.64955,-13.47807 l 0.53517,-1 -0.15274,1.20577 c -0.34672,2.73714 -2.36849,9.55019 -4.05633,13.66923 -4.35272,10.62242 -11.03837,18.24594 -18.07631,20.61206 -1.67234,0.56223 -2.65245,0.72465 -4.73398,0.78448 -1.44375,0.0415 -2.85,0.0219 -3.125,-0.0437 l 0,0 z"
       id="path3897"
       inkscape:connector-curvature="0" />
    <path
       style="fill:#e6e6e6;fill-opacity:1;stroke:#e6e6e6;stroke-width:0.30000001;stroke-miterlimit:4;stroke-dasharray:none;stroke-dashoffset:0"
       d="m 176.64908,780.23261 c 0.0981,-0.24063 0.6059,-2.125 1.12842,-4.1875 4.28691,-16.92129 3.81473,-36.74483 -1.26484,-53.10226 -1.10621,-3.56225 -2.42084,-6.81469 -4.15093,-10.26953 -1.5581,-3.11138 -1.56168,-3.12351 -1.07542,-3.64111 0.62889,-0.66943 0.61631,-1.02577 -0.0488,-1.38172 -0.43621,-0.23346 -0.57891,-0.21171 -0.76242,0.1162 -0.35606,0.63624 -0.59134,0.49307 -1.48736,-0.90507 -1.1397,-1.77838 -3.57097,-4.60878 -5.36096,-6.24104 -4.40928,-4.02075 -8.5717,-5.7912 -13.6026,-5.78577 -1.44375,0.002 -3.13125,0.1393 -3.75,0.30609 -2.9421,0.79306 -5.8734,2.27867 -8.07703,4.09352 -0.66112,0.54448 -1.26242,0.92957 -1.33622,0.85577 -0.27003,-0.27003 11.0999,-17.43267 17.66843,-26.67008 6.1351,-8.62787 12.8246,-17.29078 18.14672,-23.5 5.80958,-6.77793 14.28881,-14.72761 16.14303,-15.13487 2.72043,-0.59751 6.49041,6.03739 12.04426,21.19703 3.21273,8.76939 6.41081,17.62829 6.41081,17.7584 0,0.0689 -0.25312,0.18904 -0.5625,0.26703 -0.42858,0.10803 -3.65215,1.89792 -4.14497,2.30149 -0.0454,0.0371 0.10597,0.35515 0.3363,0.70668 l 0.41879,0.63914 1.35006,-0.86362 c 1.66328,-1.06399 3.04915,-1.65957 3.21968,-1.38365 0.0705,0.11415 0.67952,1.71051 1.35328,3.54746 6.40614,17.46592 12.55779,29.07889 18.02414,34.02566 l 1.51394,1.37003 -2.06686,1.59032 c -1.13677,0.87467 -3.58672,3.11212 -5.44434,4.9721 -11.31471,11.32918 -24.99342,29.47682 -41.60247,55.1943 -2.72251,4.21554 -3.47754,5.24677 -3.02016,4.125 l 0,0 z m -0.74989,-76.21279 c 1.65,-1.84947 3,-3.54437 3,-3.76645 0,-0.38905 -0.76321,-1.06198 -0.93503,-0.82442 -0.0978,0.13519 -4.68779,5.23156 -5.78944,6.42812 -0.72854,0.79129 -0.7352,0.82132 -0.26155,1.17955 0.26731,0.20217 0.59852,0.3627 0.73602,0.35673 0.1375,-0.006 1.6,-1.52406 3.25,-3.37353 l 0,0 z m 10.5,-11.5523 c 0,-0.20235 -0.20105,-0.49268 -0.44678,-0.64516 -0.38607,-0.23957 -0.90077,0.19841 -3.7873,3.22275 l -3.34052,3.5 0.51733,0.56137 0.51732,0.56138 3.26997,-3.41621 c 1.79849,-1.87891 3.26998,-3.58177 3.26998,-3.78413 l 0,0 z m 4.5,-4.15893 3.5,-3.34802 -0.5329,-0.54618 -0.5329,-0.54619 -3.53462,3.43822 c -3.36872,3.27686 -3.51496,3.45995 -3.11585,3.90096 0.23032,0.2545 0.4857,0.45969 0.56752,0.45598 0.0818,-0.004 1.72375,-1.51335 3.64875,-3.35477 l 0,0 z m 6.21261,-5.71973 c 0.98307,-0.86969 2.60399,-2.22526 3.60206,-3.01238 1.56202,-1.23188 1.77938,-1.49708 1.56116,-1.90483 -0.13944,-0.26053 -0.34082,-0.52765 -0.44752,-0.59359 -0.22599,-0.13968 -2.50841,1.59726 -5.6211,4.27769 -2.08925,1.79912 -2.17301,1.91015 -1.77376,2.35132 0.23048,0.25467 0.52541,0.46304 0.65541,0.46304 0.13,0 1.04069,-0.71156 2.02375,-1.58125 l 0,0 z"
       id="path3899"
       inkscape:connector-curvature="0" />
    <path
       style="fill:#e6e6e6;fill-opacity:1;stroke:#e6e6e6;stroke-width:0.30000001;stroke-miterlimit:4;stroke-dasharray:none;stroke-dashoffset:0"
       d="m 156.52419,720.52336 c -5.3093,-6.32576 -12.2135,-9.49822 -18.72933,-8.60608 -3.68566,0.50464 -7.24306,2.13286 -10.46655,4.79053 -0.78371,0.64615 -1.46811,1.13164 -1.52089,1.07886 -0.0528,-0.0528 0.70469,-1.39778 1.68326,-2.9889 1.84189,-2.99485 4.32862,-5.75721 6.97101,-7.7437 0.72188,-0.54269 1.30892,-1.10421 1.30455,-1.24783 -0.0177,-0.58205 -0.68254,-1.14331 -1.14779,-0.969 -0.62875,0.23556 2.07862,-2.68249 3.85967,-4.16001 5.99391,-4.97245 12.64966,-5.9774 18.86342,-2.84821 2.54041,1.27933 4.91131,3.09593 7.06973,5.41686 2.42734,2.6101 4.7006,5.82037 4.43483,6.26279 -0.1083,0.18028 -1.09691,1.3625 -2.19691,2.62717 l -2,2.29939 -0.5,-0.67282 c -0.275,-0.37005 -0.74646,-0.96408 -1.04769,-1.32006 l -0.5477,-0.64724 -0.56491,0.55706 -0.56492,0.55705 0.99807,1.44295 0.99807,1.44294 -2.71615,3.1875 c -1.49389,1.75312 -2.7361,3.18558 -2.76046,3.18324 -0.0244,-0.002 -0.66306,-0.74146 -1.41931,-1.64249 l 0,0 z m 4.85618,-9.08245 c 0.33035,-0.36504 0.37247,-0.59356 0.17681,-0.95916 -0.36094,-0.67442 -4.54647,-4.59642 -5.46626,-5.12209 -0.7556,-0.43183 -0.76553,-0.42993 -1.19731,0.22905 -0.42909,0.65488 -0.42504,0.67202 0.28049,1.18544 1.23189,0.89647 3.87909,3.31721 4.64917,4.25146 0.85094,1.03233 0.96996,1.06408 1.5571,0.4153 l 0,0 z m -7.39631,-6.40756 c 0.15957,-0.35022 0.29013,-0.69504 0.29013,-0.76627 0,-0.24575 -3.71031,-1.84299 -5.15573,-2.21947 -0.79712,-0.20763 -1.87568,-0.3775 -2.39679,-0.3775 -0.87973,0 -0.94748,0.0521 -0.94748,0.72802 0,0.66411 0.0933,0.74243 1.0625,0.89203 1.37496,0.21224 4.56713,1.26764 5.6875,1.88042 1.12277,0.61409 1.11732,0.6146 1.45987,-0.13723 z m -11.11471,-1.65675 c 1.85798,-0.28885 1.92629,-0.3235 1.85444,-0.94069 -0.0719,-0.61789 -0.13382,-0.64015 -1.73097,-0.62255 -1.67123,0.0184 -4.15084,0.69447 -6.03413,1.64519 -0.92744,0.46819 -0.93539,0.48467 -0.57235,1.18671 l 0.36816,0.71194 2.0929,-0.84035 c 1.1511,-0.46219 2.96097,-0.9753 4.02195,-1.14025 l 0,0 z"
       id="path3901"
       inkscape:connector-curvature="0" />
    <path
       style="fill:#e6e6e6;fill-opacity:1;stroke:#e6e6e6;stroke-width:0.30000001;stroke-miterlimit:4;stroke-dasharray:none;stroke-dashoffset:0"
       d="m 166.40909,796.43612 c -0.0795,-0.12869 0.25659,-1.65782 0.74695,-3.39808 2.33301,-8.27972 3.36579,-16.14387 3.3673,-25.64028 0.002,-12.1189 -1.83663,-22.68995 -5.64054,-32.43127 -1.28876,-3.30036 -3.38375,-7.47749 -4.92705,-9.82389 l -1.08691,-1.65252 2.68397,-3.16062 2.68396,-3.16062 0.78706,1.37563 c 0.43288,0.7566 0.84245,1.37564 0.91014,1.37564 0.12163,0 1.13411,-0.49881 1.30192,-0.6414 0.0477,-0.0405 -0.33819,-0.85062 -0.8575,-1.80022 l -0.94422,-1.72654 2.2188,-2.52983 2.2188,-2.52984 0.59951,1.05141 c 0.83697,1.46789 2.85609,5.95861 3.62008,8.05142 3.58129,9.81027 5.23896,19.79936 5.26887,31.75 0.0222,8.88563 -0.78577,16.00353 -2.70133,23.79659 -1.08894,4.43012 -3.33238,10.82901 -4.38807,12.51591 -0.90314,1.44315 -1.12844,1.62168 -0.90052,0.71356 0.10415,-0.41497 0.0294,-0.64533 -0.24334,-0.75 -0.9724,-0.37314 -1.23062,-0.1557 -1.82462,1.53644 -0.3258,0.92812 -0.98432,2.61401 -1.46338,3.74641 -0.47907,1.1324 -0.80565,2.22927 -0.72575,2.4375 0.27839,0.72548 -0.33052,1.49911 -0.70413,0.8946 l 0,0 z m 6.09202,-11.7365 c 0.29321,-1.08664 0.74315,-2.9369 0.99988,-4.11169 0.4049,-1.85288 0.4181,-2.15466 0.0995,-2.2769 -1.11826,-0.42912 -1.21175,-0.27193 -2.18365,3.67158 -0.5168,2.09687 -0.99094,3.94187 -1.05366,4.1 -0.11047,0.27851 1.12366,0.8603 1.44538,0.68137 0.0877,-0.0488 0.39931,-0.97773 0.69251,-2.06436 l 0,0 z m 2.10638,-10.09201 c 0.21782,-1.40938 0.47086,-3.30618 0.56232,-4.21513 0.16626,-1.65236 0.16617,-1.65266 -0.52845,-1.827 -0.89543,-0.22474 -1.01251,-0.0113 -1.20032,2.18786 -0.0842,0.98547 -0.32003,2.74437 -0.52416,3.90867 -0.39694,2.26398 -0.32608,2.49642 0.76345,2.50427 0.48171,0.003 0.56798,-0.23462 0.92716,-2.55867 z m 1.00427,-9.47591 c 0.0893,-1.25862 0.16243,-3.22737 0.16243,-4.375 l 0,-2.08659 -0.72594,0 -0.72594,0 -0.15114,2.6875 c -0.0831,1.47812 -0.20724,3.44687 -0.2758,4.375 l -0.12467,1.6875 0.83931,0 0.83931,0 0.16244,-2.28841 0,0 z m 0.0513,-11.49575 c -0.0994,-2.21879 -0.2396,-4.18754 -0.31154,-4.375 -0.0719,-0.18746 -0.45942,-0.34084 -0.86108,-0.34084 l -0.73029,0 0.14225,3.0625 c 0.0782,1.68437 0.202,3.65312 0.27502,4.375 0.1284,1.2692 0.15808,1.3125 0.89958,1.3125 l 0.7668,0 -0.18074,-4.03416 0,0 z m -0.69675,-5.92476 c 0.25315,-0.16068 0.2171,-0.87823 -0.17876,-3.55867 -0.78052,-5.2851 -0.70583,-5.05641 -1.59366,-4.87885 -0.41701,0.0834 -0.78341,0.1786 -0.81421,0.21154 -0.0308,0.033 0.0919,0.8474 0.27271,1.8099 0.18079,0.9625 0.47036,2.84687 0.64349,4.1875 0.28438,2.20221 0.36489,2.43713 0.83405,2.43367 0.28561,-0.002 0.66198,-0.0944 0.83638,-0.20509 z m -1.38462,-9.68189 c 0.242,-0.24199 -1.65199,-7.73704 -2.07298,-8.20339 -0.10884,-0.12055 -0.49949,-0.14349 -0.86813,-0.051 -0.53291,0.13375 -0.6441,0.28111 -0.54267,0.71919 0.0702,0.30304 0.5493,2.1541 1.06476,4.11348 0.91151,3.46486 0.95557,3.5625 1.6077,3.5625 0.36879,0 0.73388,-0.0634 0.81132,-0.14081 z m -2.70657,-9.62569 c 0.25043,-0.23314 -0.0777,-1.21019 -1.77885,-5.296 -0.61541,-1.47813 -1.25563,-2.6875 -1.4227,-2.6875 -0.16708,0 -0.51811,0.15672 -0.78007,0.34827 -0.46155,0.33749 -0.44859,0.41292 0.41857,2.4375 0.49217,1.14908 1.2026,2.90883 1.57874,3.91057 0.61043,1.62571 0.74158,1.80394 1.22114,1.6594 0.2955,-0.0891 0.63892,-0.25657 0.76317,-0.37224 l 0,0 z"
       id="path3903"
       inkscape:connector-curvature="0" />
    <path
       style="fill:none;stroke:#0000ff;stroke-width:1px;stroke-linecap:butt;stroke-linejoin:miter;stroke-opacity:1;marker-start:url(#Arrow1MstartH)"
       d="m 200,677.36217 c -10,-80 50,-60 50,-60"
       id="path3021"
       inkscape:connector-curvature="0" />
    <path
       style="fill:none;stroke:#ff0000;stroke-width:1px;stroke-linecap:butt;stroke-linejoin:miter;stroke-opacity:1;marker-start:url(#Arrow1Mstart7)"
       d="m 150,702.36217 c 0,-60 -35,-55 -35,-55"
       id="path3023"
       inkscape:connector-curvature="0" />
    <text
       xml:space="preserve"
       style="font-size:12px;font-style:normal;font-variant:normal;font-weight:normal;font-stretch:normal;line-height:125%;letter-spacing:0px;word-spacing:0px;fill:#000000;fill-opacity:1;stroke:none;font-family:Nimbus Mono L;-inkscape-font-specification:Nimbus Mono L"
       x="255"
       y="622.36218"
       id="text5005"
       sodipodi:linespacing="125%"><tspan
         sodipodi:role="line"
         id="tspan5007"
         x="255"
         y="622.36218">longitudinal seam</tspan></text>
    <text
       xml:space="preserve"
       style="font-size:12px;font-style:normal;font-variant:normal;font-weight:normal;font-stretch:normal;line-height:125%;letter-spacing:0px;word-spacing:0px;fill:#000000;fill-opacity:1;stroke:none;font-family:Nimbus Mono L;-inkscape-font-specification:Nimbus Mono L"
       x="85"
       y="647.36218"
       id="text5009"
       sodipodi:linespacing="125%"><tspan
         sodipodi:role="line"
         id="tspan5011"
         x="85"
         y="647.36218">hem</tspan></text>
  </g>
</svg>
