<?xml version="1.0" encoding="UTF-8" standalone="no"?>
<!-- Created with Inkscape (http://www.inkscape.org/) -->

<svg
   xmlns:dc="http://purl.org/dc/elements/1.1/"
   xmlns:cc="http://creativecommons.org/ns#"
   xmlns:rdf="http://www.w3.org/1999/02/22-rdf-syntax-ns#"
   xmlns:svg="http://www.w3.org/2000/svg"
   xmlns="http://www.w3.org/2000/svg"
   xmlns:sodipodi="http://sodipodi.sourceforge.net/DTD/sodipodi-0.dtd"
   xmlns:inkscape="http://www.inkscape.org/namespaces/inkscape"
   width="524.40942"
   height="744.09448"
   id="svg2"
   version="1.1"
   inkscape:version="0.48.2 r9819"
   sodipodi:docname="two-one_side_device.svg">
  <sodipodi:namedview
     id="base"
     pagecolor="#ffffff"
     bordercolor="#666666"
     borderopacity="1.0"
     inkscape:pageopacity="0.0"
     inkscape:pageshadow="2"
     inkscape:zoom="2.1110502"
     inkscape:cx="214.32157"
     inkscape:cy="546.41278"
     inkscape:document-units="px"
     inkscape:current-layer="layer1"
     showgrid="true"
     inkscape:window-width="1280"
     inkscape:window-height="1000"
     inkscape:window-x="0"
     inkscape:window-y="24"
     inkscape:window-maximized="1">
    <inkscape:grid
       type="xygrid"
       id="grid2985"
       empspacing="5"
       visible="true"
       enabled="true"
       snapvisiblegridlinesonly="true" />
  </sodipodi:namedview>
  <defs
     id="defs4">
    <marker
       inkscape:stockid="Arrow1Mstart"
       orient="auto"
       refY="0.0"
       refX="0.0"
       id="Arrow1Mstart"
       style="overflow:visible">
      <path
         id="path3802"
         d="M 0.0,0.0 L 5.0,-5.0 L -12.5,0.0 L 5.0,5.0 L 0.0,0.0 z "
         style="fill-rule:evenodd;stroke:#000000;stroke-width:1.0pt;marker-start:none"
         transform="scale(0.4) translate(10,0)" />
    </marker>
    <marker
       inkscape:stockid="Arrow1Lstart"
       orient="auto"
       refY="0.0"
       refX="0.0"
       id="Arrow1Lstart"
       style="overflow:visible">
      <path
         id="path3796"
         d="M 0.0,0.0 L 5.0,-5.0 L -12.5,0.0 L 5.0,5.0 L 0.0,0.0 z "
         style="fill-rule:evenodd;stroke:#000000;stroke-width:1.0pt;marker-start:none"
         transform="scale(0.8) translate(12.5,0)" />
    </marker>
    <marker
       inkscape:stockid="Arrow1Mstart7"
       orient="auto"
       refY="0.0"
       refX="0.0"
       id="Arrow1Mstart7"
       style="overflow:visible">
      <path
         id="path4802"
         d="M 0.0,0.0 L 5.0,-5.0 L -12.5,0.0 L 5.0,5.0 L 0.0,0.0 z "
         style="marker-start:none;stroke:#ff0000;stroke-width:1.0pt;fill:#ff0000;fill-rule:evenodd"
         transform="scale(0.4) translate(10,0)" />
    </marker>
    <marker
       inkscape:stockid="Arrow1MstartH"
       orient="auto"
       refY="0.0"
       refX="0.0"
       id="Arrow1MstartH"
       style="overflow:visible">
      <path
         id="path4909"
         d="M 0.0,0.0 L 5.0,-5.0 L -12.5,0.0 L 5.0,5.0 L 0.0,0.0 z "
         style="marker-start:none;stroke:#0000ff;stroke-width:1.0pt;fill:#0000ff;fill-rule:evenodd"
         transform="scale(0.4) translate(10,0)" />
    </marker>
  </defs>
  <metadata
     id="metadata7">
    <rdf:RDF>
      <cc:Work
         rdf:about="">
        <dc:format>image/svg+xml</dc:format>
        <dc:type
           rdf:resource="http://purl.org/dc/dcmitype/StillImage" />
        <dc:title />
      </cc:Work>
    </rdf:RDF>
  </metadata>
  <g
     inkscape:label="Camada 1"
     inkscape:groupmode="layer"
     id="layer1"
     transform="translate(0,-308.26769)">
    <rect
       style="fill:#e6e6e6;stroke:#000000;stroke-width:1.19790006;stroke-miterlimit:4;stroke-dasharray:none;stroke-dashoffset:0"
       id="rect3833"
       width="47.916"
       height="47.916"
       x="191.04201"
       y="461.4252" />
    <path
       sodipodi:type="arc"
       style="fill:#ff0000;stroke:#000000;stroke-width:1;stroke-miterlimit:4;stroke-dasharray:none;stroke-dashoffset:0"
       id="path3809"
       sodipodi:cx="50"
       sodipodi:cy="182.36218"
       sodipodi:rx="10"
       sodipodi:ry="10"
       d="m 60,182.36218 a 10,10 0 1 1 -20,0 10,10 0 1 1 20,0 z"
       transform="matrix(1.1979,0,0,1.1979,155.105,266.93151)" />
    <path
       sodipodi:type="star"
       style="fill:#ff0000;stroke:#000000;stroke-width:1;stroke-miterlimit:4;stroke-dasharray:none;stroke-dashoffset:0"
       id="path3817"
       sodipodi:sides="5"
       sodipodi:cx="45"
       sodipodi:cy="182.36218"
       sodipodi:r1="10"
       sodipodi:r2="8.0901699"
       sodipodi:arg1="1.5707963"
       sodipodi:arg2="2.1991149"
       inkscape:flatsided="true"
       inkscape:rounded="0"
       inkscape:randomized="0"
       d="m 45,192.36218 -9.510565,-6.90983 3.632712,-11.18034 11.755705,0 3.632713,11.18034 z"
       inkscape:transform-center-y="1.143889"
       transform="matrix(1.1979,0,0,1.1979,161.0945,266.93151)" />
    <rect
       style="fill:#e6e6e6;fill-opacity:1;stroke:#000000;stroke-width:1.19790006;stroke-miterlimit:4;stroke-dasharray:none;stroke-dashoffset:0"
       id="rect3835"
       width="47.916"
       height="47.916"
       x="191.04201"
       y="353.6142" />
    <rect
       style="fill:#00ff00;stroke:#00ff00;stroke-width:1.19790006;stroke-miterlimit:4;stroke-dasharray:none;stroke-dashoffset:0"
       id="rect3837"
       width="107.811"
       height="5.9895"
       x="161.0945"
       y="455.43573" />
    <path
       style="fill:none;stroke:#000000;stroke-width:1.19790006px;stroke-linecap:butt;stroke-linejoin:miter;stroke-opacity:1"
       d="m 161.0945,461.42517 107.811,0"
       id="path3843"
       inkscape:connector-curvature="0" />
    <path
       style="fill:#0000ff;stroke:#000000;stroke-width:1.19790006px;stroke-linecap:butt;stroke-linejoin:miter;stroke-opacity:1"
       d="m 268.9055,455.43567 -107.811,0"
       id="path3845"
       inkscape:connector-curvature="0" />
    <path
       style="fill:none;stroke:#0000ff;stroke-width:1.19790006px;stroke-linecap:butt;stroke-linejoin:miter;stroke-opacity:1"
       d="m 215,443.45667 c 17.9685,-23.958 17.9685,-35.937 17.9685,-35.937"
       id="path3849"
       inkscape:connector-curvature="0" />
    <path
       style="fill:#ff0000;stroke:#000000;stroke-width:0.89999998px;stroke-linecap:butt;stroke-linejoin:miter;stroke-opacity:1"
       d="m 212.858,401.3142 0,44.1 2.7,5.4 1.8,-5.4 0,-44.1"
       id="path3039"
       inkscape:connector-curvature="0"
       sodipodi:nodetypes="ccccc" />
    <path
       sodipodi:type="arc"
       style="fill:#ffffff;fill-opacity:0.01086958;stroke:#000000;stroke-width:0.75131482;stroke-linejoin:round;stroke-miterlimit:4;stroke-opacity:1;stroke-dasharray:none;stroke-dashoffset:0"
       id="path3041"
       sodipodi:cx="212.5"
       sodipodi:cy="124.09448"
       sodipodi:rx="0.5"
       sodipodi:ry="1"
       d="m 213,124.09448 a 0.5,1 0 1 1 -1,0 0.5,1 0 1 1 1,0 z"
       transform="matrix(1.449459,0,0,1.449459,-92.902042,263.74434)" />
    <path
       style="fill:none;stroke:#0000ff;stroke-width:1.19790006px;stroke-linecap:butt;stroke-linejoin:miter;stroke-opacity:1"
       d="m 161.0945,454.23777 5.9895,0 0,7.1874 0,-7.1874 5.9895,0 0,7.1874 0,-7.1874 5.9895,0 0,7.1874 0,-7.1874 5.9895,0 0,7.1874 0,-7.1874 5.9895,0 0,8.3853 0,-8.3853 5.9895,0 0,7.1874 0,-7.1874 5.9895,0 0,7.1874 0,-7.1874 5.9895,0 0,7.1874 0,-7.1874 5.9895,0 0,7.1874 0,-17.9685"
       id="path3853"
       inkscape:connector-curvature="0" />
    <path
       style="fill:none;stroke:#0000ff;stroke-width:1.19790006px;stroke-linecap:butt;stroke-linejoin:miter;stroke-opacity:1"
       d="m 215,461.42517 0,11.979"
       id="path3855"
       inkscape:connector-curvature="0" />
    <rect
       style="fill:#e6e6e6;fill-opacity:1;stroke:#000000;stroke-width:1.19790006;stroke-miterlimit:4;stroke-dasharray:none;stroke-dashoffset:0"
       id="rect3835-7"
       width="47.916"
       height="47.916"
       x="316.04199"
       y="354.55121" />
    <rect
       style="fill:#00ff00;stroke:#00ff00;stroke-width:1.19790006;stroke-miterlimit:4;stroke-dasharray:none;stroke-dashoffset:0"
       id="rect3837-6"
       width="107.811"
       height="5.9895"
       x="286.09448"
       y="456.37274" />
    <path
       style="fill:none;stroke:#000000;stroke-width:1.19790006px;stroke-linecap:butt;stroke-linejoin:miter;stroke-opacity:1"
       d="m 286.0945,462.36217 107.811,0"
       id="path3843-1"
       inkscape:connector-curvature="0" />
    <path
       style="fill:#0000ff;stroke:#000000;stroke-width:1.19790006px;stroke-linecap:butt;stroke-linejoin:miter;stroke-opacity:1"
       d="m 393.9055,456.37267 -107.811,0"
       id="path3845-2"
       inkscape:connector-curvature="0" />
    <path
       style="fill:none;stroke:#0000ff;stroke-width:1.19790006px;stroke-linecap:butt;stroke-linejoin:miter;stroke-opacity:1"
       d="m 340,444.39367 c 17.9685,-23.958 17.9685,-35.937 17.9685,-35.937"
       id="path3849-4"
       inkscape:connector-curvature="0" />
    <path
       style="fill:#ff0000;stroke:#000000;stroke-width:0.89999998px;stroke-linecap:butt;stroke-linejoin:miter;stroke-opacity:1"
       d="m 337.5205,402.2512 0,44.1 2.7,5.4 1.8,-5.4 0,-44.1"
       id="path3039-0"
       inkscape:connector-curvature="0"
       sodipodi:nodetypes="ccccc" />
    <path
       style="fill:none;stroke:#0000ff;stroke-width:1.19790006px;stroke-linecap:butt;stroke-linejoin:miter;stroke-opacity:1"
       d="m 286.0945,455.17477 5.9895,0 0,7.1874 0,-7.1874 5.9895,0 0,7.1874 0,-7.1874 5.9895,0 0,7.1874 0,-7.1874 5.9895,0 0,7.1874 0,-7.1874 5.9895,0 0,8.3853 0,-8.3853 5.9895,0 0,7.1874 0,-7.1874 5.9895,0 0,7.1874 0,-7.1874 5.9895,0 0,7.1874 0,-7.1874 5.9895,0 0,7.1874 0,-17.9685"
       id="path3853-3"
       inkscape:connector-curvature="0" />
    <text
       xml:space="preserve"
       style="font-size:12px;font-style:normal;font-variant:normal;font-weight:normal;font-stretch:normal;line-height:125%;letter-spacing:0px;word-spacing:0px;fill:#000000;fill-opacity:1;stroke:none;font-family:Nimbus Mono L;-inkscape-font-specification:Nimbus Mono L"
       x="110"
       y="547.36218"
       id="text3003"
       sodipodi:linespacing="125%"><tspan
         sodipodi:role="line"
         id="tspan3005"
         x="110"
         y="547.36218">(a) Two side stitching device.</tspan></text>
    <text
       xml:space="preserve"
       style="font-size:12px;font-style:normal;font-variant:normal;font-weight:normal;font-stretch:normal;line-height:125%;letter-spacing:0px;word-spacing:0px;fill:#000000;fill-opacity:1;stroke:none;font-family:Nimbus Mono L;-inkscape-font-specification:Nimbus Mono L"
       x="270"
       y="547.36218"
       id="text3007"
       sodipodi:linespacing="125%"><tspan
         sodipodi:role="line"
         id="tspan3009"
         x="270"
         y="547.36218">(b) One side stitching device.</tspan></text>
    <path
       style="fill:none;stroke:#000000;stroke-width:1px;stroke-linecap:butt;stroke-linejoin:miter;stroke-opacity:1"
       d="m 155,149.09448 -50,0"
       id="path3015"
       inkscape:connector-curvature="0"
       transform="translate(0,308.26769)" />
    <path
       style="fill:#000000;stroke:#000000;stroke-width:1px;stroke-linecap:butt;stroke-linejoin:miter;stroke-opacity:1"
       d="m 155,149.09448 -5,-2 0,4 z"
       id="path3017"
       inkscape:connector-curvature="0"
       transform="translate(0,308.26769)" />
    <path
       style="fill:none;stroke:#000000;stroke-width:1px;stroke-linecap:butt;stroke-linejoin:miter;stroke-opacity:1"
       d="m 155,139.09448 -5,-5 0,-94.999998 5,-5"
       id="path3019"
       inkscape:connector-curvature="0"
       transform="translate(0,308.26769)" />
    <path
       style="fill:none;stroke:#000000;stroke-width:1px;stroke-linecap:butt;stroke-linejoin:miter;stroke-opacity:1"
       d="m 155,159.09448 -5,5 0,40 5,5"
       id="path3021"
       inkscape:connector-curvature="0"
       transform="translate(0,308.26769)" />
    <text
       xml:space="preserve"
       style="font-size:11px;font-style:normal;font-variant:normal;font-weight:normal;font-stretch:normal;line-height:125%;letter-spacing:0px;word-spacing:0px;fill:#000000;fill-opacity:1;stroke:none;font-family:Times New Roman;-inkscape-font-specification:Times New Roman"
       x="55"
       y="462.36218"
       id="text3023"
       sodipodi:linespacing="125%"><tspan
         sodipodi:role="line"
         id="tspan3025"
         x="55"
         y="462.36218">Material</tspan></text>
    <text
       xml:space="preserve"
       style="font-size:11px;font-style:normal;font-variant:normal;font-weight:normal;font-stretch:normal;line-height:125%;letter-spacing:0px;word-spacing:0px;fill:#000000;fill-opacity:1;stroke:none;font-family:Times New Roman;-inkscape-font-specification:Times New Roman"
       x="25"
       y="392.36218"
       id="text3027"
       sodipodi:linespacing="125%"><tspan
         sodipodi:role="line"
         id="tspan3029"
         x="25"
         y="392.36218">Side above the material</tspan></text>
    <text
       xml:space="preserve"
       style="font-size:11px;font-style:normal;font-variant:normal;font-weight:normal;font-stretch:normal;line-height:125%;letter-spacing:0px;word-spacing:0px;fill:#000000;fill-opacity:1;stroke:none;font-family:Times New Roman;-inkscape-font-specification:Times New Roman"
       x="45"
       y="497.36218"
       id="text3031"
       sodipodi:linespacing="125%"><tspan
         sodipodi:role="line"
         id="tspan3033"
         x="45"
         y="497.36218">Side under material</tspan></text>
    <path
       sodipodi:type="arc"
       style="fill:#ffffff;fill-opacity:0.01086958;stroke:#000000;stroke-width:0.75131482;stroke-linejoin:round;stroke-miterlimit:4;stroke-opacity:1;stroke-dasharray:none;stroke-dashoffset:0"
       id="path3041-7"
       sodipodi:cx="212.5"
       sodipodi:cy="124.09448"
       sodipodi:rx="0.5"
       sodipodi:ry="1"
       d="m 213,124.09448 a 0.5,1 0 1 1 -1,0 0.5,1 0 1 1 1,0 z"
       transform="matrix(1.449459,0,0,1.449459,31.760466,264.68134)" />
  </g>
</svg>
